<?xml version="1.0" encoding="UTF-8" standalone="no"?>
<!-- Created with Inkscape (http://www.inkscape.org/) -->
<svg
   xmlns:dc="http://purl.org/dc/elements/1.1/"
   xmlns:cc="http://web.resource.org/cc/"
   xmlns:rdf="http://www.w3.org/1999/02/22-rdf-syntax-ns#"
   xmlns:svg="http://www.w3.org/2000/svg"
   xmlns="http://www.w3.org/2000/svg"
   xmlns:sodipodi="http://sodipodi.sourceforge.net/DTD/sodipodi-0.dtd"
   xmlns:inkscape="http://www.inkscape.org/namespaces/inkscape"
   width="168.5"
   height="162.98"
   id="svg2068"
   sodipodi:version="0.32"
   inkscape:version="0.44"
   version="1.0"
   sodipodi:docbase="/home/alejo"
   sodipodi:docname="Binary entropy plot.svg">
  <defs
     id="defs2070" />
  <sodipodi:namedview
     id="base"
     pagecolor="#ffffff"
     bordercolor="#666666"
     borderopacity="1.0"
     gridtolerance="10000"
     guidetolerance="10"
     objecttolerance="10"
     inkscape:pageopacity="0.0"
     inkscape:pageshadow="2"
     inkscape:zoom="2.8"
     inkscape:cx="161.81946"
     inkscape:cy="81.956815"
     inkscape:document-units="px"
     inkscape:current-layer="layer1"
     width="168.5px"
     height="162.98px"
     units="px"
     inkscape:window-width="1214"
     inkscape:window-height="767"
     inkscape:window-x="0"
     inkscape:window-y="0" />
  <metadata
     id="metadata2073">
    <rdf:RDF>
      <cc:Work
         rdf:about="">
        <dc:format>image/svg+xml</dc:format>
        <dc:type
           rdf:resource="http://purl.org/dc/dcmitype/StillImage" />
      </cc:Work>
    </rdf:RDF>
  </metadata>
  <g
     inkscape:label="Layer 1"
     inkscape:groupmode="layer"
     id="layer1"
     transform="translate(-161.6206,-157.3873)">
    <path
       id="path14"
       d="M 201.93852,284.6347 L 201.93852,171.25171"
       style="fill:none;stroke:#bebebe;stroke-width:0.39850599;stroke-linecap:square" />
    <path
       id="path16"
       d="M 213.27452,284.6347 L 213.27452,171.25171"
       style="fill:none;stroke:#bebebe;stroke-width:0.39850599;stroke-linecap:square" />
    <path
       id="path18"
       d="M 224.61452,284.6347 L 224.61452,171.25171"
       style="fill:none;stroke:#bebebe;stroke-width:0.39850599;stroke-linecap:square" />
    <path
       id="path20"
       d="M 235.95452,284.6347 L 235.95452,171.25171"
       style="fill:none;stroke:#bebebe;stroke-width:0.39850599;stroke-linecap:square" />
    <path
       id="path22"
       d="M 247.29452,284.6347 L 247.29452,171.25171"
       style="fill:none;stroke:#bebebe;stroke-width:0.39850599;stroke-linecap:square" />
    <path
       id="path24"
       d="M 258.63052,284.6347 L 258.63052,171.25171"
       style="fill:none;stroke:#bebebe;stroke-width:0.39850599;stroke-linecap:square" />
    <path
       id="path26"
       d="M 269.97002,284.6347 L 269.97002,171.25171"
       style="fill:none;stroke:#bebebe;stroke-width:0.39850599;stroke-linecap:square" />
    <path
       id="path28"
       d="M 281.31102,284.6347 L 281.31102,171.25171"
       style="fill:none;stroke:#bebebe;stroke-width:0.39850599;stroke-linecap:square" />
    <path
       id="path30"
       d="M 292.64502,284.6347 L 292.64502,171.25171"
       style="fill:none;stroke:#bebebe;stroke-width:0.39850599;stroke-linecap:square" />
    <path
       id="path32"
       d="M 303.98602,284.6347 L 303.98602,171.25171"
       style="fill:none;stroke:#bebebe;stroke-width:0.39850599;stroke-linecap:square" />
    <path
       id="path34"
       d="M 315.32202,284.6347 L 315.32202,171.25171"
       style="fill:none;stroke:#bebebe;stroke-width:0.39850599;stroke-linecap:square" />
    <path
       id="path36"
       d="M 201.93852,284.6347 L 315.32202,284.6347"
       style="fill:none;stroke:#bebebe;stroke-width:0.39850599;stroke-linecap:square" />
    <path
       id="path38"
       d="M 201.93852,273.2987 L 315.32202,273.2987"
       style="fill:none;stroke:#bebebe;stroke-width:0.39850599;stroke-linecap:square" />
    <path
       id="path40"
       d="M 201.93852,261.9587 L 315.32202,261.9587"
       style="fill:none;stroke:#bebebe;stroke-width:0.39850599;stroke-linecap:square" />
    <path
       id="path42"
       d="M 201.93852,250.6197 L 315.32202,250.6197"
       style="fill:none;stroke:#bebebe;stroke-width:0.39850599;stroke-linecap:square" />
    <path
       id="path44"
       d="M 201.93852,239.2837 L 315.32202,239.2837"
       style="fill:none;stroke:#bebebe;stroke-width:0.39850599;stroke-linecap:square" />
    <path
       id="path46"
       d="M 201.93852,227.9437 L 315.32202,227.9437"
       style="fill:none;stroke:#bebebe;stroke-width:0.39850599;stroke-linecap:square" />
    <path
       id="path48"
       d="M 201.93852,216.60771 L 315.32202,216.60771"
       style="fill:none;stroke:#bebebe;stroke-width:0.39850599;stroke-linecap:square" />
    <path
       id="path50"
       d="M 201.93852,205.26771 L 315.32202,205.26771"
       style="fill:none;stroke:#bebebe;stroke-width:0.39850599;stroke-linecap:square" />
    <path
       id="path52"
       d="M 201.93852,193.92771 L 315.32202,193.92771"
       style="fill:none;stroke:#bebebe;stroke-width:0.39850599;stroke-linecap:square" />
    <path
       id="path54"
       d="M 201.93852,182.58771 L 315.32202,182.58771"
       style="fill:none;stroke:#bebebe;stroke-width:0.39850599;stroke-linecap:square" />
    <path
       id="path56"
       d="M 201.93852,171.25171 L 315.32202,171.25171"
       style="fill:none;stroke:#bebebe;stroke-width:0.39850599;stroke-linecap:square" />
    <path
       id="path58"
       d="M 201.93852,284.6347 L 201.93852,171.25171"
       style="fill:none;stroke:#bebebe;stroke-width:0.79701102;stroke-linecap:square" />
    <path
       id="path60"
       d="M 315.32202,284.6347 L 315.32202,171.25171"
       style="fill:none;stroke:#bebebe;stroke-width:0.79701102;stroke-linecap:square" />
    <path
       id="path62"
       d="M 201.93852,284.6347 L 315.32202,284.6347"
       style="fill:none;stroke:#bebebe;stroke-width:0.79701102;stroke-linecap:square" />
    <path
       id="path64"
       d="M 201.93852,171.25171 L 315.32202,171.25171"
       style="fill:none;stroke:#bebebe;stroke-width:0.79701102;stroke-linecap:square" />
    <path
       id="path66"
       d="M 205.89552,284.6347 L 206.39252,284.6347"
       style="fill:none;stroke:black;stroke-width:0.79701102;stroke-linecap:square" />
    <path
       id="path68"
       d="M 319.36902,287.2247 L 326.61902,284.6347 L 319.36902,282.0447 L 322.26802,284.6347"
       style="fill:black;fill-rule:evenodd;stroke:none" />
    <path
       id="path70"
       d="M 201.89552,284.6347 L 322.26802,284.6347"
       style="fill:none;stroke:black;stroke-width:0.79701102" />
    <path
       id="path72"
       d="M 205.89552,284.6347 L 205.89552,284.1387"
       style="fill:none;stroke:black;stroke-width:0.79701102;stroke-linecap:square" />
    <path
       id="path74"
       d="M 204.48952,167.16271 L 201.89952,159.91271 L 199.31052,167.16271 L 201.89952,164.26372"
       style="fill:black;fill-rule:evenodd;stroke:none" />
    <path
       id="path76"
       d="M 201.89552,284.6347 L 201.89552,164.26372"
       style="fill:none;stroke:black;stroke-width:0.79701102" />
    <path
       id="path78"
       d="M 258.59152,288.0257 L 258.59152,281.2517"
       style="fill:none;stroke:black;stroke-width:0.79701102" />
    <path
       id="path80"
       d="M 315.28302,288.0257 L 315.28302,281.2517"
       style="fill:none;stroke:black;stroke-width:0.79701102" />
    <path
       id="path82"
       d="M 204.43852,296.8497 C 204.43852,295.8457 204.38052,294.8697 203.94652,293.9477 C 203.45452,292.9437 202.58752,292.6777 201.99752,292.6777 C 201.30252,292.6777 200.44652,293.0297 200.00152,294.0337 C 199.66552,294.7947 199.54852,295.5447 199.54852,296.8497 C 199.54852,298.0217 199.63052,298.9047 200.06352,299.7637 C 200.53252,300.6817 201.36052,300.9707 201.98952,300.9707 C 203.03652,300.9707 203.63852,300.3417 203.98552,299.6427 C 204.41552,298.7367 204.44252,297.5527 204.44252,296.8497 L 204.43852,296.8497 z M 201.98152,300.7757 C 201.59552,300.7757 200.80652,300.5567 200.57552,299.2247 C 200.44252,298.4947 200.44252,297.5647 200.44252,296.7087 C 200.44252,295.7087 200.44252,294.8027 200.63452,294.0797 C 200.83752,293.2637 201.45852,292.8847 201.98152,292.8847 C 202.44252,292.8847 203.14552,293.1657 203.37652,294.2167 C 203.53252,294.9127 203.53252,295.8767 203.53252,296.7087 C 203.53252,297.5257 203.53252,298.4547 203.39952,299.2017 C 203.16952,300.5447 202.40752,300.7757 201.97852,300.7757"
       style="fill:black;fill-rule:evenodd;stroke:none" />
    <path
       id="path84"
       d="M 256.54052,296.8497 C 256.54052,295.8457 256.48152,294.8697 256.04852,293.9477 C 255.55652,292.9437 254.68852,292.6777 254.09952,292.6777 C 253.40352,292.6777 252.54852,293.0297 252.10252,294.0337 C 251.76752,294.7947 251.64952,295.5447 251.64952,296.8497 C 251.64952,298.0217 251.73152,298.9047 252.16552,299.7637 C 252.63452,300.6817 253.46252,300.9707 254.09152,300.9707 C 255.13852,300.9707 255.73952,300.3417 256.08752,299.6427 C 256.51752,298.7367 256.54452,297.5527 256.54452,296.8497 L 256.54052,296.8497 z M 254.08352,300.7757 C 253.69652,300.7757 252.90752,300.5567 252.67752,299.2247 C 252.54452,298.4947 252.54452,297.5647 252.54452,296.7087 C 252.54452,295.7087 252.54452,294.8027 252.73552,294.0797 C 252.93852,293.2637 253.56052,292.8847 254.08352,292.8847 C 254.54452,292.8847 255.24752,293.1657 255.47852,294.2167 C 255.63452,294.9127 255.63452,295.8767 255.63452,296.7087 C 255.63452,297.5257 255.63452,298.4547 255.50152,299.2017 C 255.27052,300.5447 254.50952,300.7757 254.07952,300.7757"
       style="fill:black;fill-rule:evenodd;stroke:none" />
    <path
       id="path86"
       d="M 259.13852,300.0837 C 259.13852,299.7287 258.84152,299.4787 258.54452,299.4787 C 258.18852,299.4787 257.93852,299.7757 257.93852,300.0727 C 257.93852,300.4277 258.23552,300.6777 258.53252,300.6777 C 258.88852,300.6777 259.13852,300.3807 259.13852,300.0837"
       style="fill:black;fill-rule:evenodd;stroke:none" />
    <path
       id="path88"
       d="M 261.73952,293.8267 C 262.25552,293.9667 262.67752,293.9747 262.81052,293.9747 C 264.16902,293.9747 265.04102,293.0367 265.04102,292.8767 C 265.04102,292.8337 265.01802,292.7757 264.94702,292.7757 C 264.92302,292.7757 264.89902,292.7757 264.79402,292.8107 C 264.12652,293.0407 263.55252,293.0727 263.23952,293.0727 C 262.45052,293.0727 261.88852,292.8807 261.66152,292.8027 C 261.57952,292.7757 261.55652,292.7757 261.54452,292.7757 C 261.45052,292.7757 261.45052,292.8457 261.45052,293.0337 L 261.45052,296.5487 C 261.45052,296.7597 261.45052,296.8297 261.57952,296.8297 C 261.63052,296.8297 261.64252,296.8187 261.74752,296.6697 C 262.08752,296.1657 262.65752,295.8697 263.26752,295.8697 C 263.91152,295.8697 264.22902,296.4667 264.32602,296.6737 C 264.52902,297.1467 264.54402,297.7477 264.54402,298.2087 C 264.54402,298.6697 264.54402,299.3657 264.20802,299.9157 C 263.94652,300.3537 263.47852,300.6587 262.95052,300.6587 C 262.16152,300.6587 261.38452,300.0957 261.16552,299.1777 C 261.22452,299.2327 261.29452,299.2557 261.35652,299.2557 C 261.56052,299.2557 261.88052,299.1307 261.88052,298.7087 C 261.88052,298.3617 261.65352,298.1627 261.35652,298.1627 C 261.14252,298.1627 260.83352,298.2717 260.83352,298.7447 C 260.83352,299.7757 261.64952,300.9587 262.98952,300.9587 C 264.35002,300.9587 265.54402,299.8147 265.54402,298.2867 C 265.54402,296.8577 264.57202,295.6627 263.29052,295.6627 C 262.59952,295.6627 262.06352,295.9547 261.74752,296.2867"
       style="fill:black;fill-rule:evenodd;stroke:none" />
    <path
       id="path90"
       d="M 311.13902,292.9667 C 311.13902,292.6897 311.13902,292.6777 310.90402,292.6777 C 310.62302,293.0137 310.03702,293.4747 308.83002,293.4747 L 308.83002,293.7717 C 309.10002,293.7717 309.68802,293.7717 310.34102,293.5257 L 310.34102,299.7947 C 310.34102,300.2247 310.30702,300.3697 309.26802,300.3697 L 308.90402,300.3697 L 308.90402,300.6657 C 309.22502,300.6427 310.38402,300.6427 310.77902,300.6427 C 311.17302,300.6427 312.31702,300.6427 312.64302,300.6657 L 312.64302,300.3697 L 312.26402,300.3697 C 311.18202,300.3697 311.14502,300.2247 311.14502,299.7907"
       style="fill:black;fill-rule:evenodd;stroke:none" />
    <path
       id="path92"
       d="M 315.83702,300.0837 C 315.83702,299.7287 315.54102,299.4787 315.24402,299.4787 C 314.88902,299.4787 314.63902,299.7757 314.63902,300.0727 C 314.63902,300.4277 314.93602,300.6777 315.23102,300.6777 C 315.58702,300.6777 315.83702,300.3807 315.83702,300.0837"
       style="fill:black;fill-rule:evenodd;stroke:none" />
    <path
       id="path94"
       d="M 322.24002,296.8497 C 322.24002,295.8457 322.18202,294.8697 321.74802,293.9477 C 321.25502,292.9437 320.38902,292.6777 319.79802,292.6777 C 319.10202,292.6777 318.24802,293.0297 317.80202,294.0337 C 317.46602,294.7947 317.35002,295.5447 317.35002,296.8497 C 317.35002,298.0217 317.43202,298.9047 317.86502,299.7637 C 318.33402,300.6817 319.16202,300.9707 319.79102,300.9707 C 320.83702,300.9707 321.43802,300.3417 321.78702,299.6427 C 322.21602,298.7367 322.24402,297.5527 322.24402,296.8497 L 322.24002,296.8497 z M 319.78302,300.7757 C 319.39502,300.7757 318.60602,300.5567 318.37602,299.2247 C 318.24402,298.4947 318.24402,297.5647 318.24402,296.7087 C 318.24402,295.7087 318.24402,294.8027 318.43602,294.0797 C 318.63902,293.2637 319.25902,292.8847 319.78302,292.8847 C 320.24402,292.8847 320.94702,293.1657 321.17702,294.2167 C 321.33402,294.9127 321.33402,295.8767 321.33402,296.7087 C 321.33402,297.5257 321.33402,298.4547 321.20102,299.2017 C 320.97002,300.5447 320.20802,300.7757 319.77902,300.7757"
       style="fill:black;fill-rule:evenodd;stroke:none" />
    <path
       id="path96"
       d="M 205.28652,227.9437 L 198.51352,227.9437"
       style="fill:none;stroke:black;stroke-width:0.79701102" />
    <path
       id="path98"
       d="M 209.28652,171.25171 L 202.51352,171.25171"
       style="fill:none;stroke:black;stroke-width:0.79701102" />
    <path
       id="path100"
       d="M 193.04052,284.6507 C 193.04052,283.6467 192.98152,282.6697 192.54852,281.7477 C 192.05652,280.7447 191.18852,280.4787 190.59952,280.4787 C 189.90352,280.4787 189.04852,280.8297 188.60252,281.8337 C 188.26752,282.5957 188.14952,283.3457 188.14952,284.6507 C 188.14952,285.8227 188.23152,286.7047 188.66552,287.5647 C 189.13452,288.4827 189.96252,288.7717 190.59152,288.7717 C 191.63852,288.7717 192.23952,288.1427 192.58752,287.4437 C 193.01752,286.5367 193.04452,285.3537 193.04452,284.6507 L 193.04052,284.6507 z M 190.58352,288.5767 C 190.19652,288.5767 189.40752,288.3577 189.17752,287.0257 C 189.04452,286.2947 189.04452,285.3657 189.04452,284.5097 C 189.04452,283.5097 189.04452,282.6037 189.23552,281.8807 C 189.43852,281.0647 190.06052,280.6857 190.58352,280.6857 C 191.04452,280.6857 191.74752,280.9667 191.97852,282.0177 C 192.13452,282.7127 192.13452,283.6777 192.13452,284.5097 C 192.13452,285.3267 192.13452,286.2557 192.00152,287.0017 C 191.77052,288.3457 191.00952,288.5767 190.57952,288.5767"
       style="fill:black;fill-rule:evenodd;stroke:none" />
    <path
       id="path102"
       d="M 183.93852,228.0527 C 183.93852,227.0487 183.88052,226.0727 183.44652,225.15071 C 182.95452,224.14671 182.08752,223.88071 181.49752,223.88071 C 180.80252,223.88071 179.94652,224.23271 179.50152,225.23671 C 179.16552,225.9977 179.04852,226.7477 179.04852,228.0527 C 179.04852,229.2247 179.13052,230.1077 179.56352,230.9667 C 180.03252,231.8847 180.86052,232.1737 181.48952,232.1737 C 182.53652,232.1737 183.13852,231.5447 183.48552,230.8457 C 183.91552,229.9397 183.94252,228.7557 183.94252,228.0527 L 183.93852,228.0527 z M 181.48152,231.9747 C 181.09552,231.9747 180.30652,231.7557 180.07552,230.4237 C 179.94252,229.6937 179.94252,228.7637 179.94252,227.9087 C 179.94252,226.9087 179.94252,226.0017 180.13452,225.27971 C 180.33752,224.46271 180.95852,224.08371 181.48152,224.08371 C 181.94252,224.08371 182.64552,224.36571 182.87652,225.4157 C 183.03252,226.1117 183.03252,227.0767 183.03252,227.9087 C 183.03252,228.7247 183.03252,229.6547 182.89952,230.4007 C 182.66952,231.7447 181.90752,231.9747 181.47852,231.9747"
       style="fill:black;fill-rule:evenodd;stroke:none" />
    <path
       id="path104"
       d="M 186.54052,231.2837 C 186.54052,230.9277 186.24352,230.6777 185.94652,230.6777 C 185.59152,230.6777 185.34152,230.9747 185.34152,231.2717 C 185.34152,231.6267 185.63852,231.8767 185.93552,231.8767 C 186.29052,231.8767 186.54052,231.5797 186.54052,231.2837"
       style="fill:black;fill-rule:evenodd;stroke:none" />
    <path
       id="path106"
       d="M 189.13852,225.02571 C 189.65352,225.16571 190.07552,225.17371 190.20852,225.17371 C 191.56752,225.17371 192.43852,224.23671 192.43852,224.07671 C 192.43852,224.03371 192.41552,223.97471 192.34552,223.97471 C 192.32152,223.97471 192.29852,223.97471 192.19252,224.00971 C 191.52452,224.24071 190.95052,224.27171 190.63852,224.27171 C 189.84952,224.27171 189.28652,224.07971 189.06052,224.00171 C 188.97852,223.97471 188.95452,223.97471 188.94252,223.97471 C 188.84952,223.97471 188.84952,224.04471 188.84952,224.23271 L 188.84952,227.7477 C 188.84952,227.9587 188.84952,228.0297 188.97852,228.0297 C 189.02852,228.0297 189.04052,228.0177 189.14552,227.8697 C 189.48552,227.3657 190.05652,227.0687 190.66552,227.0687 C 191.31052,227.0687 191.62652,227.6657 191.72452,227.8727 C 191.92752,228.3457 191.94252,228.9477 191.94252,229.4087 C 191.94252,229.8697 191.94252,230.5647 191.60652,231.1157 C 191.34552,231.5527 190.87652,231.8577 190.34952,231.8577 C 189.56052,231.8577 188.78252,231.2947 188.56352,230.3767 C 188.62252,230.4317 188.69252,230.4547 188.75552,230.4547 C 188.95852,230.4547 189.27852,230.3297 189.27852,229.9087 C 189.27852,229.5607 189.05252,229.3617 188.75552,229.3617 C 188.54052,229.3617 188.23152,229.4707 188.23152,229.9437 C 188.23152,230.9747 189.04852,232.1587 190.38852,232.1587 C 191.74752,232.1587 192.94252,231.0137 192.94252,229.4867 C 192.94252,228.0567 191.97052,226.8617 190.68852,226.8617 C 189.99752,226.8617 189.46252,227.1547 189.14552,227.4867"
       style="fill:black;fill-rule:evenodd;stroke:none" />
    <path
       id="path108"
       d="M 181.93852,167.36974 C 181.93852,167.09173 181.93852,167.0797 181.70452,167.0797 C 181.42352,167.4157 180.83752,167.8767 179.63052,167.8767 L 179.63052,168.1737 C 179.89952,168.1737 180.48952,168.1737 181.14252,167.92772 L 181.14252,174.19771 C 181.14252,174.62671 181.10652,174.77171 180.06752,174.77171 L 179.70452,174.77171 L 179.70452,175.06871 C 180.02452,175.04471 181.18552,175.04471 181.57952,175.04471 C 181.97452,175.04471 183.11852,175.04471 183.44252,175.06871 L 183.44252,174.77171 L 183.06352,174.77171 C 181.98152,174.77171 181.94652,174.62671 181.94652,174.19371"
       style="fill:black;fill-rule:evenodd;stroke:none" />
    <path
       id="path110"
       d="M 186.54052,174.48271 C 186.54052,174.12671 186.24352,173.87671 185.94652,173.87671 C 185.59152,173.87671 185.34152,174.17371 185.34152,174.47071 C 185.34152,174.82671 185.63852,175.07671 185.93552,175.07671 C 186.29052,175.07671 186.54052,174.77971 186.54052,174.48271"
       style="fill:black;fill-rule:evenodd;stroke:none" />
    <path
       id="path112"
       d="M 193.04052,171.25171 C 193.04052,170.24771 192.98152,169.27172 192.54852,168.34972 C 192.05652,167.34569 191.18852,167.0797 190.59952,167.0797 C 189.90352,167.0797 189.04852,167.43169 188.60252,168.43572 C 188.26752,169.19774 188.14952,169.94771 188.14952,171.25171 C 188.14952,172.42371 188.23152,173.30671 188.66552,174.16571 C 189.13452,175.08371 189.96252,175.37271 190.59152,175.37271 C 191.63852,175.37271 192.23952,174.74471 192.58752,174.04471 C 193.01752,173.13871 193.04452,171.95471 193.04452,171.25171 L 193.04052,171.25171 z M 190.58352,175.17771 C 190.19652,175.17771 189.40752,174.95871 189.17752,173.62671 C 189.04452,172.89671 189.04452,171.96671 189.04452,171.11171 C 189.04452,170.11171 189.04452,169.2047 189.23552,168.48272 C 189.43852,167.6657 190.06052,167.28673 190.58352,167.28673 C 191.04452,167.28673 191.74752,167.56872 191.97852,168.61974 C 192.13452,169.31475 192.13452,170.27971 192.13452,171.11171 C 192.13452,171.92771 192.13452,172.85771 192.00152,173.60371 C 191.77052,174.94771 191.00952,175.17771 190.57952,175.17771"
       style="fill:black;fill-rule:evenodd;stroke:none" />
    <path
       id="path114"
       d="M 201.90752,284.4707 C 201.90752,284.4707 202.59552,278.4787 203.05252,275.3297 C 203.39952,272.9397 203.77052,270.7987 204.19652,268.4157 C 204.56352,266.3297 204.92352,264.4587 205.34152,262.3767 C 205.71652,260.4907 206.07152,258.7987 206.48552,256.9157 C 206.86452,255.1777 207.22052,253.6197 207.63052,251.8887 C 208.00952,250.2717 208.36452,248.8227 208.77452,247.2087 C 209.15752,245.6937 209.51352,244.3337 209.91952,242.8267 C 210.30252,241.4007 210.65752,240.1197 211.06352,238.6977 C 211.44652,237.3497 211.80252,236.1387 212.20852,234.7907 C 212.59152,233.5137 212.94652,232.3657 213.35252,231.0877 C 213.73552,229.8727 214.09152,228.7797 214.49752,227.5687 C 214.88452,226.4127 215.23552,225.37271 215.64252,224.21671 C 216.02852,223.11571 216.38052,222.12271 216.78652,221.02571 C 217.17352,219.97071 217.52452,219.02571 217.93152,217.97871 C 218.31752,216.97471 218.66952,216.07271 219.07552,215.06871 C 219.46252,214.10771 219.81352,213.24471 220.22052,212.29071 C 220.60652,211.37271 220.95852,210.54871 221.36452,209.63471 C 221.75152,208.75571 222.10652,207.96671 222.50952,207.09571 C 222.89552,206.25571 223.25152,205.50171 223.65352,204.66971 C 224.04052,203.86571 224.39552,203.14671 224.79852,202.34971 C 225.18552,201.58371 225.54052,200.89671 225.94252,200.13471 C 226.32952,199.40471 226.68552,198.74471 227.08752,198.01771 C 227.47452,197.31871 227.82952,196.69371 228.23152,195.99771 C 228.61852,195.32971 228.97452,194.73271 229.37652,194.07271 C 229.76352,193.43571 230.11852,192.86971 230.52052,192.23671 C 230.90752,191.63071 231.26352,191.08771 231.66552,190.49071 C 232.05252,189.91571 232.40752,189.40071 232.81052,188.82971 C 233.19652,188.28371 233.55252,187.79471 233.95452,187.25571 C 234.34152,186.73671 234.69652,186.27171 235.09952,185.76371 C 235.48552,185.27171 235.84152,184.83371 236.24352,184.34971 C 236.63052,183.88471 236.98552,183.47071 237.38852,183.01371 C 237.77452,182.57671 238.13052,182.18571 238.53252,181.75571 C 238.91952,181.34571 239.27452,180.97871 239.67752,180.57671 C 240.06352,180.18971 240.41952,179.84571 240.82152,179.47071 C 241.20852,179.11171 241.56352,178.78671 241.96652,178.43971 C 242.35252,178.10371 242.70852,177.80671 243.11052,177.48271 C 243.49752,177.16971 243.85252,176.89271 244.25552,176.59571 C 244.64252,176.30671 244.99752,176.05271 245.39952,175.77971 C 245.78652,175.51371 246.14252,175.28371 246.54452,175.03671 C 246.93152,174.79871 247.28652,174.58771 247.68852,174.36171 C 248.07552,174.14271 248.43152,173.95471 248.83352,173.75571 C 249.22452,173.56471 249.57552,173.39671 249.97852,173.22071 C 250.36852,173.04871 250.72052,172.90471 251.12252,172.75171 C 251.51352,172.60371 251.86452,172.47871 252.26752,172.35371 C 252.65752,172.22871 253.01352,172.12671 253.41152,172.02171 C 253.80252,171.91971 254.15752,171.83771 254.55652,171.75571 C 254.94652,171.67771 255.30252,171.61571 255.70052,171.55671 C 256.09152,171.50171 256.44652,171.45871 256.84552,171.42371 C 257.23952,171.39271 257.59552,171.36971 257.98952,171.35771 C 258.38452,171.34971 258.73952,171.34971 259.13452,171.35771 C 259.52852,171.36971 259.88452,171.38871 260.27852,171.42371 C 260.67352,171.45471 261.02852,171.49771 261.42352,171.55671 C 261.81752,171.61171 262.17352,171.67371 262.56752,171.75571 C 262.96252,171.83371 263.31752,171.91571 263.71252,172.02171 C 264.10652,172.12271 264.46202,172.22871 264.85602,172.35371 C 265.25502,172.47871 265.61102,172.60771 266.00102,172.75171 C 266.39902,172.90071 266.75502,173.04871 267.14502,173.22071 C 267.54402,173.39671 267.89902,173.56071 268.29102,173.75571 C 268.68802,173.95471 269.04402,174.14271 269.43602,174.36171 C 269.83402,174.58371 270.18802,174.79471 270.58002,175.03671 C 270.97902,175.28371 271.33402,175.51771 271.72502,175.78371 C 272.12302,176.05271 272.47902,176.30671 272.86902,176.59971 C 273.26802,176.89671 273.62302,177.17371 274.01402,177.48671 C 274.41202,177.80671 274.76802,178.10771 275.15802,178.44371 C 275.55702,178.79071 275.91202,179.11171 276.30202,179.47471 C 276.70102,179.84971 277.05702,180.19371 277.44702,180.57971 C 277.84502,180.97871 278.20102,181.34571 278.59102,181.75971 C 278.99002,182.18571 279.34502,182.57671 279.73602,183.01771 C 280.13402,183.47071 280.49002,183.88471 280.88002,184.35371 C 281.27902,184.83371 281.63402,185.27571 282.02402,185.76771 C 282.42302,186.27571 282.77902,186.74071 283.16902,187.25971 C 283.56702,187.79471 283.92302,188.28671 284.31302,188.83371 C 284.71202,189.40071 285.06702,189.91571 285.45802,190.49471 C 285.85602,191.09171 286.21202,191.63471 286.60202,192.24071 C 287.00102,192.86971 287.35602,193.43571 287.74802,194.07671 C 288.14502,194.73671 288.50102,195.33371 288.89302,196.00171 C 289.29102,196.69371 289.64502,197.31871 290.03702,198.02171 C 290.43602,198.74771 290.79102,199.40471 291.18202,200.13871 C 291.58002,200.90071 291.93602,201.58371 292.32602,202.35371 C 292.72502,203.15071 293.08002,203.86971 293.47002,204.67371 C 293.87302,205.50571 294.22502,206.25971 294.61502,207.09971 C 295.01802,207.97071 295.36902,208.75971 295.75902,209.63871 C 296.16202,210.54871 296.51402,211.37271 296.90402,212.29471 C 297.30702,213.24771 297.65802,214.11171 298.04802,215.07671 C 298.45102,216.07671 298.80702,216.97871 299.19202,217.98671 C 299.59502,219.03371 299.95102,219.97871 300.33702,221.03371 C 300.74002,222.13071 301.09502,223.11971 301.48102,224.22471 C 301.88402,225.37671 302.24002,226.4157 302.62602,227.5767 C 303.02902,228.7867 303.38402,229.8767 303.77002,231.0957 C 304.17302,232.3697 304.52902,233.5177 304.91602,234.7987 C 305.31702,236.1427 305.67302,237.3537 306.06102,238.7047 C 306.46202,240.1267 306.81702,241.4047 307.20502,242.8337 C 307.61102,244.3417 307.96602,245.7017 308.35002,247.2167 C 308.75502,248.8267 309.11102,250.2757 309.49402,251.8967 C 309.89902,253.6267 310.25502,255.1857 310.63902,256.9237 C 311.04802,258.8027 311.40402,260.4947 311.78302,262.3847 C 312.19702,264.4627 312.55702,266.3337 312.92702,268.4237 C 313.35002,270.8027 313.72502,272.9437 314.07202,275.3377 C 314.52402,278.4827 315.21602,284.4787 315.21602,284.4787"
       style="fill:none;stroke:#3535b3;stroke-width:1.79326999" />
    <path
       id="path116"
       d="M 234.24352,308.7757 L 236.25952,308.7757 C 237.65352,308.7757 238.93552,307.8267 238.93552,306.6077 C 238.93552,305.4397 237.77852,304.3807 236.16552,304.3807 L 232.14252,304.3807 L 232.14252,304.6777 L 232.39252,304.6777 C 233.29852,304.6777 233.33752,304.7947 233.33752,305.2477 L 233.33752,311.7017 C 233.33752,312.1507 233.30252,312.2717 232.39252,312.2717 L 232.14252,312.2717 L 232.14252,312.5687 C 232.42752,312.5447 233.40752,312.5447 233.75152,312.5447 C 234.10652,312.5447 235.08752,312.5447 235.37652,312.5687 L 235.37652,312.2717 L 235.13852,312.2717 C 234.27852,312.2717 234.24352,312.1547 234.24352,311.7047 L 234.24352,308.7757 z M 234.23952,308.4747 L 234.23952,305.1657 C 234.23952,304.7677 234.26352,304.6817 234.78652,304.6817 L 235.90352,304.6817 C 237.83352,304.6817 237.83352,306.0567 237.83352,306.5797 C 237.83352,307.0917 237.83352,308.4787 235.89252,308.4787"
       style="fill:black;fill-rule:evenodd;stroke:none" />
    <path
       id="path118"
       d="M 241.54052,309.7797 C 241.54052,308.5917 242.01752,307.4787 242.93552,307.4787 C 243.02852,307.4787 243.05252,307.4787 243.09952,307.4787 C 243.01352,307.5297 242.83752,307.6077 242.83752,307.9547 C 242.83752,308.3297 243.09952,308.4707 243.27852,308.4707 C 243.50552,308.4707 243.73152,308.3147 243.73152,307.9827 C 243.73152,307.6197 243.41152,307.2757 242.89952,307.2757 C 241.89252,307.2757 241.54852,308.3967 241.47452,308.6267 L 241.46252,308.6267 L 241.46252,307.2757 L 239.87252,307.4087 L 239.87252,307.7597 C 240.64552,307.7597 240.73552,307.8417 240.73552,308.4397 L 240.73552,311.7247 C 240.73552,312.2677 240.61052,312.2677 239.87252,312.2677 L 239.87252,312.5647 C 240.20452,312.5407 240.86052,312.5407 241.22052,312.5407 C 241.54052,312.5407 242.39252,312.5407 242.66552,312.5647 L 242.66552,312.2677 L 242.42752,312.2677 C 241.56052,312.2677 241.53652,312.1347 241.53652,311.6937"
       style="fill:black;fill-rule:evenodd;stroke:none" />
    <path
       id="path120"
       d="M 248.02452,315.4827 C 248.02452,315.4477 248.02452,315.4237 247.82152,315.2207 C 246.61852,314.0097 245.94252,312.0337 245.94252,309.5877 C 245.94252,307.2637 246.50552,305.2637 247.90752,303.8497 C 248.02452,303.7447 248.02452,303.7207 248.02452,303.6817 C 248.02452,303.6117 247.96652,303.5877 247.91952,303.5877 C 247.76752,303.5877 246.79852,304.4517 246.21652,305.6227 C 245.61452,306.8337 245.34152,308.1157 245.34152,309.5877 C 245.34152,310.6547 245.50552,312.0797 246.11852,313.3617 C 246.81352,314.7987 247.78652,315.5767 247.91552,315.5767 C 247.96252,315.5767 248.02052,315.5527 248.02052,315.4827"
       style="fill:black;fill-rule:evenodd;stroke:none" />
    <path
       id="path122"
       d="M 254.40752,307.7207 L 253.29052,305.0337 C 253.44252,304.7407 253.80252,304.6897 253.94252,304.6777 C 254.01352,304.6777 254.14252,304.6697 254.14252,304.4947 C 254.14252,304.3807 254.03652,304.3807 253.96652,304.3807 C 253.76752,304.3807 253.52852,304.4047 253.32552,304.4047 L 252.63452,304.4047 C 251.90752,304.4047 251.38452,304.3807 251.37252,304.3807 C 251.27852,304.3807 251.15752,304.3807 251.15752,304.5767 C 251.15752,304.6777 251.26352,304.6777 251.41952,304.6777 C 252.11052,304.6777 252.15752,304.7947 252.27452,305.0877 L 253.69252,308.4667 C 252.84952,309.4127 251.97852,310.3617 251.10652,311.2867 C 250.68152,311.7597 250.16552,312.2207 249.28252,312.2717 C 249.14252,312.2797 249.04452,312.2797 249.04452,312.4667 C 249.04452,312.4947 249.05652,312.5687 249.18552,312.5687 C 249.34952,312.5687 249.52852,312.5447 249.69652,312.5447 L 250.25552,312.5447 C 250.63452,312.5447 251.05252,312.5687 251.42352,312.5687 C 251.50552,312.5687 251.64952,312.5687 251.64952,312.3847 C 251.64952,312.2837 251.56752,312.2717 251.49752,312.2717 C 251.25952,312.2477 251.10652,312.1157 251.10652,311.9237 C 251.10652,311.7207 251.24752,311.5727 251.59552,311.2087 C 251.83352,310.9437 252.41552,310.2907 252.65352,310.0367 C 252.91552,309.7597 253.54852,309.0567 253.81052,308.7907 L 255.06052,311.7717 C 255.07152,311.7947 255.11852,311.9157 255.11852,311.9277 C 255.11852,312.0337 254.85652,312.2517 254.47852,312.2757 C 254.40752,312.2757 254.27852,312.2837 254.27852,312.4707 C 254.27852,312.5727 254.39552,312.5727 254.45452,312.5727 C 254.65352,312.5727 254.89252,312.5487 255.09552,312.5487 L 256.40352,312.5487 C 256.61852,312.5487 256.84152,312.5727 257.04852,312.5727 C 257.13052,312.5727 257.25952,312.5727 257.25952,312.3767 C 257.25952,312.2757 257.14252,312.2757 257.03252,312.2757 C 256.31752,312.2637 256.29452,312.2047 256.09152,311.7557 L 254.51752,307.9907 C 254.95452,307.4947 255.52852,306.8847 256.02852,306.3377 C 256.14552,306.2207 256.41952,305.9157 256.52852,305.7907 C 257.04052,305.2447 257.51752,304.7477 258.48152,304.6857 C 258.59952,304.6777 258.72052,304.6777 258.72052,304.5017 C 258.72052,304.3887 258.61452,304.3887 258.56352,304.3887 C 258.39952,304.3887 258.22052,304.4127 258.05252,304.4127 L 257.50552,304.4127 C 257.12652,304.4127 256.70852,304.3887 256.33752,304.3887 C 256.25552,304.3887 256.11052,304.3887 256.11052,304.5727 C 256.11052,304.6737 256.19252,304.6857 256.26352,304.6857 C 256.45052,304.7087 256.65352,304.8067 256.65352,305.0407 L 256.64252,305.0647 C 256.63052,305.1507 256.60652,305.2717 256.47852,305.4197"
       style="fill:black;fill-rule:evenodd;stroke:none" />
    <path
       id="path124"
       d="M 270.65402,308.6777 C 270.81702,308.6777 271.03702,308.6777 271.03702,308.4867 C 271.03702,308.2837 270.83402,308.2837 270.65402,308.2837 L 263.62252,308.2837 C 263.45852,308.2837 263.24352,308.2837 263.24352,308.4747 C 263.24352,308.6777 263.44252,308.6777 263.62252,308.6777 L 270.65402,308.6777 z M 270.65402,310.9747 C 270.81702,310.9747 271.03702,310.9747 271.03702,310.7837 C 271.03702,310.5797 270.83402,310.5797 270.65402,310.5797 L 263.62252,310.5797 C 263.45852,310.5797 263.24352,310.5797 263.24352,310.7717 C 263.24352,310.9747 263.44252,310.9747 263.62252,310.9747"
       style="fill:black;fill-rule:evenodd;stroke:none" />
    <path
       id="path126"
       d="M 278.54102,304.8697 C 278.54102,304.5917 278.54102,304.5797 278.30702,304.5797 C 278.02402,304.9157 277.43802,305.3767 276.23102,305.3767 L 276.23102,305.6737 C 276.50102,305.6737 277.09102,305.6737 277.74402,305.4277 L 277.74402,311.6977 C 277.74402,312.1267 277.70802,312.2717 276.66902,312.2717 L 276.30702,312.2717 L 276.30702,312.5687 C 276.62602,312.5447 277.78702,312.5447 278.18202,312.5447 C 278.57602,312.5447 279.72002,312.5447 280.04402,312.5687 L 280.04402,312.2717 L 279.66602,312.2717 C 278.58402,312.2717 278.54802,312.1267 278.54802,311.6937"
       style="fill:black;fill-rule:evenodd;stroke:none" />
    <path
       id="path128"
       d="M 284.24002,309.5837 C 284.24002,308.6737 284.12602,307.1897 283.47502,305.7987 C 282.79102,304.3617 281.83402,303.5837 281.70802,303.5837 C 281.66602,303.5837 281.60602,303.6077 281.60602,303.6777 C 281.60602,303.7127 281.60602,303.7367 281.80702,303.9397 C 282.98602,305.1427 283.64502,307.1157 283.64502,309.5527 C 283.64502,311.8697 283.09102,313.8657 281.72502,315.2757 C 281.60602,315.3967 281.60602,315.4237 281.60602,315.4627 C 281.60602,315.5407 281.66202,315.5687 281.70802,315.5687 C 281.85602,315.5687 282.81102,314.7087 283.38402,313.5337 C 283.97902,312.3107 284.24402,311.0177 284.24402,309.5797"
       style="fill:black;fill-rule:evenodd;stroke:none" />
    <path
       id="path130"
       d="M 165.77492,234.2907 C 165.36472,234.1857 165.24362,234.1627 165.24362,233.3147 C 165.24362,233.0997 165.24362,232.9787 165.06002,232.9787 C 164.94672,232.9787 164.94672,233.0837 164.94672,233.1587 C 164.94672,233.3727 164.97022,233.6227 164.97022,233.8497 L 164.97022,235.2557 C 164.97022,235.4827 164.94672,235.7327 164.94672,235.9587 C 164.94672,236.0407 164.94672,236.1857 165.14212,236.1857 C 165.24362,236.1857 165.24362,236.1037 165.24362,235.8767 C 165.24362,235.1627 165.34132,235.1627 165.47802,235.1627 C 165.50142,235.1627 165.57572,235.1627 165.75932,235.2087 L 168.73972,235.9357 L 168.73972,239.5407 L 165.78662,238.8267 C 165.36862,238.7207 165.24362,238.6977 165.24362,237.8497 C 165.24362,237.6347 165.24362,237.5177 165.06002,237.5177 C 164.94672,237.5177 164.94672,237.6227 164.94672,237.6937 C 164.94672,237.9087 164.97022,238.1587 164.97022,238.3847 L 164.97022,239.7907 C 164.97022,240.0177 164.94672,240.2677 164.94672,240.4947 C 164.94672,240.5767 164.94672,240.7207 165.14212,240.7207 C 165.24362,240.7207 165.24362,240.6387 165.24362,240.4127 C 165.24362,239.6977 165.33742,239.6977 165.47412,239.6977 C 165.49752,239.6977 165.56782,239.6977 165.75142,239.7447 L 172.29052,241.3537 C 172.71652,241.4587 172.83752,241.4827 172.83752,242.3067 C 172.83752,242.5797 172.83752,242.6627 173.03252,242.6627 C 173.13452,242.6627 173.13452,242.5337 173.13452,242.4977 C 173.13452,242.2837 173.11052,242.0337 173.11052,241.8067 L 173.11052,240.4007 C 173.11052,240.1737 173.13452,239.9237 173.13452,239.6977 C 173.13452,239.6037 173.13452,239.4707 172.93852,239.4707 C 172.83752,239.4707 172.83752,239.5767 172.83752,239.7557 C 172.83752,240.4827 172.74352,240.4827 172.61852,240.4827 C 172.60652,240.4827 172.52052,240.4827 172.42752,240.4587 L 169.04442,239.6387 L 169.04442,236.0217 C 169.84552,236.2207 172.39252,236.8297 172.46652,236.8577 C 172.82952,236.9867 172.82952,237.1777 172.84152,237.8807 C 172.84152,238.0217 172.84152,238.1307 173.03652,238.1307 C 173.13852,238.1307 173.13852,238.0017 173.13852,237.9667 C 173.13852,237.7517 173.11452,237.5017 173.11452,237.2757 L 173.11452,235.8697 C 173.11452,235.6427 173.13852,235.3927 173.13852,235.1657 C 173.13852,235.0727 173.13852,234.9397 172.94252,234.9397 C 172.84152,234.9397 172.84152,235.0447 172.84152,235.2247 C 172.84152,235.9517 172.74752,235.9517 172.62252,235.9517 C 172.61052,235.9517 172.52852,235.9517 172.43152,235.9277"
       style="fill:black;fill-rule:evenodd;stroke:none" />
    <path
       id="path132"
       d="M 176.04452,228.6897 C 176.00952,228.6897 175.98552,228.6897 175.78252,228.8927 C 174.57152,230.0957 172.59552,230.7717 170.14952,230.7717 C 167.82572,230.7717 165.82572,230.2087 164.41162,228.8067 C 164.30612,228.6897 164.28272,228.6897 164.24362,228.6897 C 164.17332,228.6897 164.14992,228.7477 164.14992,228.7947 C 164.14992,228.9477 165.01322,229.9157 166.18502,230.4977 C 167.39602,231.0997 168.67722,231.3727 170.14952,231.3727 C 171.21652,231.3727 172.64252,231.2087 173.92352,230.5957 C 175.36052,229.9007 176.13852,228.9277 176.13852,228.7987 C 176.13852,228.7517 176.11452,228.6937 176.04452,228.6937"
       style="fill:black;fill-rule:evenodd;stroke:none" />
    <path
       id="path134"
       d="M 168.28272,222.30671 L 165.59522,223.42371 C 165.30222,223.27171 165.25142,222.91271 165.23972,222.77171 C 165.23972,222.70171 165.23192,222.57271 165.05612,222.57271 C 164.94282,222.57271 164.94282,222.67771 164.94282,222.74771 C 164.94282,222.94771 164.96632,223.18571 164.96632,223.38871 L 164.96632,224.07971 C 164.96632,224.80671 164.94282,225.32971 164.94282,225.34171 C 164.94282,225.4357 164.94282,225.5567 165.13822,225.5567 C 165.23972,225.5567 165.23972,225.4517 165.23972,225.29471 C 165.23972,224.60371 165.35692,224.55671 165.64992,224.43971 L 169.02882,223.02171 C 169.97452,223.86571 170.92352,224.73671 171.84952,225.6077 C 172.32152,226.0337 172.78252,226.5487 172.83352,227.4317 C 172.84152,227.5727 172.84152,227.6697 173.02852,227.6697 C 173.05652,227.6697 173.13052,227.6587 173.13052,227.5297 C 173.13052,227.3657 173.10652,227.1857 173.10652,227.0177 L 173.10652,226.4587 C 173.10652,226.0797 173.13052,225.6627 173.13052,225.29071 C 173.13052,225.20871 173.13052,225.06471 172.94652,225.06471 C 172.84552,225.06471 172.83352,225.14671 172.83352,225.21671 C 172.81052,225.4547 172.67752,225.6077 172.48552,225.6077 C 172.28252,225.6077 172.13452,225.4667 171.77052,225.11971 C 171.50552,224.88071 170.85252,224.29871 170.59952,224.06071 C 170.32152,223.79871 169.61852,223.16571 169.35302,222.90471 L 172.33352,221.65471 C 172.35652,221.64271 172.47852,221.59571 172.48952,221.59571 C 172.59552,221.59571 172.81352,221.85771 172.83752,222.23671 C 172.83752,222.30671 172.84552,222.43571 173.03252,222.43571 C 173.13452,222.43571 173.13452,222.31871 173.13452,222.25971 C 173.13452,222.06071 173.11052,221.82271 173.11052,221.61971 L 173.11052,220.31071 C 173.11052,220.09571 173.13452,219.87271 173.13452,219.66571 C 173.13452,219.58371 173.13452,219.45471 172.93852,219.45471 C 172.83752,219.45471 172.83752,219.57271 172.83752,219.68171 C 172.82552,220.39671 172.76752,220.41971 172.31752,220.62271 L 168.54832,222.19771 C 168.05222,221.75971 167.44282,221.18571 166.89602,220.68571 C 166.77882,220.56871 166.47412,220.29471 166.34912,220.18571 C 165.80222,219.67371 165.30612,219.19771 165.24362,218.23271 C 165.23582,218.11571 165.23582,217.99471 165.06002,217.99471 C 164.94672,217.99471 164.94672,218.09971 164.94672,218.15071 C 164.94672,218.31471 164.97022,218.49471 164.97022,218.66271 L 164.97022,219.20871 C 164.97022,219.58771 164.94672,220.00571 164.94672,220.37671 C 164.94672,220.45871 164.94672,220.60371 165.13032,220.60371 C 165.23192,220.60371 165.24362,220.52171 165.24362,220.45171 C 165.26712,220.26371 165.36472,220.06071 165.59912,220.06071 L 165.62252,220.07271 C 165.70852,220.08371 165.82962,220.10771 165.97802,220.23671"
       style="fill:black;fill-rule:evenodd;stroke:none" />
    <path
       id="path136"
       d="M 170.14552,213.97471 C 169.23582,213.97471 167.75142,214.08771 166.36082,214.74071 C 164.92332,215.42371 164.14602,216.38071 164.14602,216.50571 C 164.14602,216.54871 164.16942,216.60771 164.23973,216.60771 C 164.27492,216.60771 164.29832,216.60771 164.50142,216.40871 C 165.70462,215.22871 167.67722,214.56871 170.11452,214.56871 C 172.43152,214.56871 174.42752,215.12271 175.83752,216.49071 C 175.95852,216.60771 175.98552,216.60771 176.02452,216.60771 C 176.10252,216.60771 176.13052,216.55271 176.13052,216.50571 C 176.13052,216.35771 175.27052,215.40471 174.09552,214.82971 C 172.87252,214.23671 171.57952,213.97071 170.14252,213.97071"
       style="fill:black;fill-rule:evenodd;stroke:none" />
  </g>
</svg>
